%
M48
M72
T01C0.0320
T02C0.0400
T03C0.0520
T04C0.1181
%
T01
X3185Y1681
X4185Y2931
X4185Y4181
X3185Y5431
X4185Y6681
X4185Y7931
X3185Y8931
X7185Y8931
X7185Y7931
X8185Y6931
X7185Y6681
X7185Y5431
X8685Y5181
X7185Y4181
X7185Y2931
X7185Y1681
X8685Y1181
X11185Y2681
X11185Y3681
X9935Y3681
X11185Y4681
X11185Y5681
X11185Y6681
X11185Y7681
X9935Y7681
X11185Y8681
X9435Y8931
X10435Y10181
X9435Y10931
X8185Y10931
X11685Y11431
X14435Y10181
X15685Y11431
X16435Y11431
X17935Y11431
X18935Y10431
X19935Y8431
X19935Y7431
X17935Y7431
X16435Y7431
X14185Y7681
X14185Y8681
X14185Y6681
X14185Y5681
X15435Y5681
X16685Y4931
X18185Y5431
X19935Y6431
X22185Y5431
X22185Y7431
X22185Y8431
X22935Y10431
X14185Y4681
X14185Y3681
X15435Y3681
X14185Y2681
X16685Y931
X17935Y1181
X17935Y3181
T02
X20685Y3681
X20685Y1681
T03
X1685Y1681
X1685Y3681
X1685Y5681
X1685Y7681
X1685Y9681
X1685Y11681
X24185Y9431
X24185Y7181
X24185Y4931
T04
X24435Y1931
X5685Y11181
M30
