G75*
G70*
%OFA0B0*%
%FSLAX24Y24*%
%IPPOS*%
%LPD*%
%AMOC8*
5,1,8,0,0,1.08239X$1,22.5*
%
%ADD10OC8,0.0520*%
%ADD11C,0.0520*%
%ADD12OC8,0.1500*%
%ADD13C,0.1000*%
%ADD14OC8,0.1000*%
%ADD15C,0.0560*%
%ADD16C,0.0320*%
%ADD17C,0.0500*%
%ADD18C,0.0400*%
D10*
X003094Y001601D03*
X007094Y001601D03*
X008594Y001101D03*
X009844Y003601D03*
X008594Y005101D03*
X007094Y005351D03*
X008094Y006851D03*
X009844Y007601D03*
X009344Y008851D03*
X007094Y008851D03*
X010344Y010101D03*
X009344Y010851D03*
X008094Y010851D03*
X011594Y011351D03*
X014344Y010101D03*
X015594Y011351D03*
X016344Y011351D03*
X017844Y011351D03*
X018844Y010351D03*
X022094Y008351D03*
X022094Y007351D03*
X022094Y005351D03*
X018094Y005351D03*
X016594Y004851D03*
X015344Y005601D03*
X016344Y007351D03*
X017844Y007351D03*
X022844Y010351D03*
X015344Y003601D03*
X017844Y003101D03*
X017844Y001101D03*
X016594Y000851D03*
X003094Y005351D03*
X003094Y008851D03*
D11*
X003834Y007851D02*
X004354Y007851D01*
X004354Y006601D02*
X003834Y006601D01*
X006834Y006601D02*
X007354Y006601D01*
X007354Y007851D02*
X006834Y007851D01*
X010834Y007601D02*
X011354Y007601D01*
X011354Y008601D02*
X010834Y008601D01*
X013834Y008601D02*
X014354Y008601D01*
X014354Y007601D02*
X013834Y007601D01*
X013834Y006601D02*
X014354Y006601D01*
X014354Y005601D02*
X013834Y005601D01*
X013834Y004601D02*
X014354Y004601D01*
X014354Y003601D02*
X013834Y003601D01*
X013834Y002601D02*
X014354Y002601D01*
X011354Y002601D02*
X010834Y002601D01*
X010834Y003601D02*
X011354Y003601D01*
X011354Y004601D02*
X010834Y004601D01*
X010834Y005601D02*
X011354Y005601D01*
X011354Y006601D02*
X010834Y006601D01*
X007354Y004101D02*
X006834Y004101D01*
X006834Y002851D02*
X007354Y002851D01*
X004354Y002851D02*
X003834Y002851D01*
X003834Y004101D02*
X004354Y004101D01*
X019584Y006351D02*
X020104Y006351D01*
X020104Y007351D02*
X019584Y007351D01*
X019584Y008351D02*
X020104Y008351D01*
D12*
X024094Y009351D03*
X024094Y007101D03*
X024094Y004851D03*
X001594Y005601D03*
X001594Y003601D03*
X001594Y001601D03*
X001594Y007601D03*
X001594Y009601D03*
X001594Y011601D03*
D13*
X020594Y003601D03*
D14*
X020594Y001601D03*
D15*
X003094Y001601D02*
X001594Y001601D01*
X005344Y002601D02*
X006344Y001601D01*
X007094Y001601D01*
X005344Y002601D02*
X005344Y004101D01*
X004094Y004101D01*
X005344Y004101D02*
X005344Y005351D01*
X007094Y005351D01*
X008594Y005351D01*
X008594Y005101D01*
X008594Y005351D02*
X008594Y006101D01*
X009094Y006601D01*
X011094Y006601D01*
X011094Y005601D02*
X011094Y004601D01*
X011094Y003601D01*
X009844Y004851D02*
X009094Y004101D01*
X007094Y004101D01*
X007094Y002851D01*
X009844Y004851D02*
X009844Y005351D01*
X010094Y005601D01*
X011094Y005601D01*
X014094Y006601D02*
X015844Y006601D01*
X016344Y007101D01*
X016344Y007351D01*
X017844Y007351D02*
X019844Y007351D01*
X020344Y008351D02*
X021344Y007351D01*
X022094Y007351D01*
X023344Y007101D02*
X022094Y005851D01*
X022094Y005351D01*
X020844Y005351D01*
X019844Y006351D01*
X019094Y006351D01*
X018844Y006101D01*
X017594Y006101D01*
X017094Y005601D01*
X015344Y005601D01*
X014844Y005601D01*
X016594Y004851D02*
X017844Y004851D01*
X017844Y003101D01*
X016594Y002851D02*
X016594Y000851D01*
X017594Y000851D01*
X017844Y001101D01*
X018094Y001351D01*
X020344Y001351D01*
X020594Y001601D01*
X021094Y001601D01*
X022094Y002601D01*
X022094Y003851D01*
X023344Y004851D01*
X024094Y004851D01*
X025094Y004851D01*
X025344Y005101D01*
X024094Y007101D02*
X023344Y007101D01*
X022094Y008351D02*
X021344Y008351D01*
X020594Y009101D01*
X019344Y010351D01*
X018844Y010351D01*
X019844Y011351D02*
X017844Y011351D01*
X016344Y011351D01*
X015594Y011351D02*
X014344Y010101D01*
X010344Y010101D02*
X010094Y009851D01*
X009094Y009851D01*
X007094Y007851D01*
X007094Y006601D01*
X008094Y006851D02*
X008844Y007601D01*
X009344Y007601D01*
X009344Y008851D01*
X007094Y008851D02*
X005844Y008851D01*
X005344Y008351D01*
X005344Y006601D01*
X004094Y006601D01*
X005344Y006601D02*
X005344Y005351D01*
X003094Y005351D02*
X002844Y005351D01*
X002594Y005601D01*
X001594Y005601D01*
X003094Y008851D02*
X002344Y009601D01*
X001594Y009601D01*
X015344Y003601D02*
X016094Y003601D01*
X016594Y002851D01*
X020594Y003601D02*
X020594Y005101D01*
X020844Y005351D01*
X018094Y005351D02*
X017844Y005101D01*
X017844Y004851D01*
X019844Y008351D02*
X020344Y008351D01*
X022094Y009101D02*
X019844Y011351D01*
X024094Y009351D02*
X024094Y009101D01*
X022094Y009101D01*
D16*
X016344Y007601D02*
X016344Y007351D01*
X016344Y007601D02*
X015844Y008101D01*
X013594Y008101D01*
X013094Y008601D01*
X013094Y009101D01*
X014094Y010101D01*
X014344Y010101D01*
X012344Y008601D02*
X011094Y008601D01*
X010594Y008101D02*
X012094Y008101D01*
X012594Y007601D01*
X012594Y006351D01*
X013344Y005601D01*
X014844Y005601D01*
X014094Y005601D01*
X013094Y005101D02*
X012594Y005601D01*
X011094Y005601D01*
X013094Y005101D02*
X013094Y004351D01*
X013344Y004101D01*
X015094Y004101D01*
X015344Y003851D01*
X015344Y003601D01*
X014094Y007601D02*
X013344Y007601D01*
X012344Y008601D01*
X010594Y008101D02*
X010094Y008601D01*
X010094Y009851D01*
D17*
X011094Y010351D02*
X011094Y008601D01*
X011094Y007601D02*
X009844Y007601D01*
X009344Y007601D01*
X014094Y008601D02*
X015594Y008601D01*
X016344Y009351D01*
X016344Y011351D01*
X014594Y012101D02*
X022844Y012101D01*
X022844Y010351D01*
X024344Y012101D02*
X025344Y011101D01*
X025344Y005101D01*
X016594Y004851D02*
X016344Y004601D01*
X016094Y004601D01*
X014094Y004601D01*
X014094Y003601D02*
X014094Y002601D01*
X014094Y001601D01*
X013594Y001101D01*
X009844Y001101D01*
X008594Y001101D01*
X008344Y001101D01*
X008094Y000851D01*
X005344Y000851D01*
X004094Y002101D01*
X004094Y002851D01*
X003344Y002851D01*
X003094Y003101D01*
X003094Y003601D01*
X001594Y003601D01*
X003094Y003601D02*
X003094Y004351D01*
X003844Y005101D01*
X003844Y005601D01*
X002844Y006601D01*
X002844Y007601D01*
X001594Y007601D01*
X002844Y007601D02*
X003094Y007851D01*
X004094Y007851D01*
X004094Y009351D01*
X003094Y010351D01*
X003094Y011101D01*
X002594Y011601D01*
X001594Y011601D01*
X011594Y011351D02*
X013844Y011351D01*
X014594Y012101D01*
X022844Y012101D02*
X024344Y012101D01*
X009844Y003601D02*
X009844Y001101D01*
D18*
X011094Y010351D02*
X010594Y010851D01*
X009344Y010851D01*
X008094Y010851D01*
M02*
