%
M48
M72
T01C0.0320
T02C0.0400
T03C0.0520
T04C0.1181
%
T01
X3094Y1601
X4094Y2851
X4094Y4101
X3094Y5351
X4094Y6601
X4094Y7851
X3094Y8851
X7094Y8851
X7094Y7851
X8094Y6851
X7094Y6601
X7094Y5351
X8594Y5101
X7094Y4101
X7094Y2851
X7094Y1601
X8594Y1101
X11094Y2601
X11094Y3601
X9844Y3601
X11094Y4601
X11094Y5601
X11094Y6601
X11094Y7601
X9844Y7601
X11094Y8601
X9344Y8851
X10344Y10101
X9344Y10851
X8094Y10851
X11594Y11351
X14344Y10101
X15594Y11351
X16344Y11351
X17844Y11351
X18844Y10351
X19844Y8351
X19844Y7351
X17844Y7351
X16344Y7351
X14094Y7601
X14094Y8601
X14094Y6601
X14094Y5601
X15344Y5601
X16594Y4851
X18094Y5351
X19844Y6351
X22094Y7351
X22094Y8351
X22844Y10351
X22094Y5351
X17844Y3101
X15344Y3601
X14094Y3601
X14094Y4601
X14094Y2601
X16594Y851
X17844Y1101
T02
X20594Y1601
X20594Y3601
T03
X1594Y1601
X1594Y3601
X1594Y5601
X1594Y7601
X1594Y9601
X1594Y11601
X24094Y9351
X24094Y7101
X24094Y4851
T04
X24344Y1851
X5594Y11101
M30
