G75*
G70*
%OFA0B0*%
%FSLAX24Y24*%
%IPPOS*%
%LPD*%
%AMOC8*
5,1,8,0,0,1.08239X$1,22.5*
%
%ADD10OC8,0.0520*%
%ADD11C,0.0520*%
%ADD12OC8,0.1500*%
%ADD13C,0.1000*%
%ADD14OC8,0.1000*%
%ADD15C,0.0560*%
%ADD16C,0.0320*%
%ADD17C,0.0500*%
%ADD18C,0.0400*%
D10*
X003185Y001681D03*
X007185Y001681D03*
X008685Y001181D03*
X009935Y003681D03*
X008685Y005181D03*
X007185Y005431D03*
X008185Y006931D03*
X009935Y007681D03*
X009435Y008931D03*
X007185Y008931D03*
X010435Y010181D03*
X009435Y010931D03*
X008185Y010931D03*
X011685Y011431D03*
X014435Y010181D03*
X015685Y011431D03*
X016435Y011431D03*
X017935Y011431D03*
X018935Y010431D03*
X022185Y008431D03*
X022185Y007431D03*
X022185Y005431D03*
X018185Y005431D03*
X016685Y004931D03*
X015435Y005681D03*
X016435Y007431D03*
X017935Y007431D03*
X022935Y010431D03*
X015435Y003681D03*
X017935Y003181D03*
X017935Y001181D03*
X016685Y000931D03*
X003185Y005431D03*
X003185Y008931D03*
D11*
X003925Y007931D02*
X004445Y007931D01*
X004445Y006681D02*
X003925Y006681D01*
X006925Y006681D02*
X007445Y006681D01*
X007445Y007931D02*
X006925Y007931D01*
X010925Y007681D02*
X011445Y007681D01*
X011445Y008681D02*
X010925Y008681D01*
X013925Y008681D02*
X014445Y008681D01*
X014445Y007681D02*
X013925Y007681D01*
X013925Y006681D02*
X014445Y006681D01*
X014445Y005681D02*
X013925Y005681D01*
X013925Y004681D02*
X014445Y004681D01*
X014445Y003681D02*
X013925Y003681D01*
X013925Y002681D02*
X014445Y002681D01*
X011445Y002681D02*
X010925Y002681D01*
X010925Y003681D02*
X011445Y003681D01*
X011445Y004681D02*
X010925Y004681D01*
X010925Y005681D02*
X011445Y005681D01*
X011445Y006681D02*
X010925Y006681D01*
X007445Y004181D02*
X006925Y004181D01*
X006925Y002931D02*
X007445Y002931D01*
X004445Y002931D02*
X003925Y002931D01*
X003925Y004181D02*
X004445Y004181D01*
X019675Y006431D02*
X020195Y006431D01*
X020195Y007431D02*
X019675Y007431D01*
X019675Y008431D02*
X020195Y008431D01*
D12*
X024185Y009431D03*
X024185Y007181D03*
X024185Y004931D03*
X001685Y005681D03*
X001685Y003681D03*
X001685Y001681D03*
X001685Y007681D03*
X001685Y009681D03*
X001685Y011681D03*
D13*
X020685Y003681D03*
D14*
X020685Y001681D03*
D15*
X003185Y001681D02*
X001685Y001681D01*
X005435Y002681D02*
X006435Y001681D01*
X007185Y001681D01*
X005435Y002681D02*
X005435Y004181D01*
X004185Y004181D01*
X005435Y004181D02*
X005435Y005431D01*
X007185Y005431D01*
X008685Y005431D01*
X008685Y005181D01*
X008685Y005431D02*
X008685Y006181D01*
X009185Y006681D01*
X011185Y006681D01*
X011185Y005681D02*
X011185Y004681D01*
X011185Y003681D01*
X009935Y004931D02*
X009185Y004181D01*
X007185Y004181D01*
X007185Y002931D01*
X009935Y004931D02*
X009935Y005431D01*
X010185Y005681D01*
X011185Y005681D01*
X008935Y007681D02*
X008185Y006931D01*
X007185Y006681D02*
X007185Y007931D01*
X009185Y009931D01*
X010185Y009931D01*
X010435Y010181D01*
X009435Y008931D02*
X009435Y007681D01*
X008935Y007681D01*
X007185Y008931D02*
X005935Y008931D01*
X005435Y008431D01*
X005435Y006681D01*
X004185Y006681D01*
X005435Y006681D02*
X005435Y005431D01*
X003185Y005431D02*
X002935Y005431D01*
X002685Y005681D01*
X001685Y005681D01*
X003185Y008931D02*
X002435Y009681D01*
X001685Y009681D01*
X014185Y006681D02*
X015935Y006681D01*
X016435Y007181D01*
X016435Y007431D01*
X017935Y007431D02*
X019935Y007431D01*
X020435Y008431D02*
X021435Y007431D01*
X022185Y007431D01*
X023435Y007181D02*
X022185Y005931D01*
X022185Y005431D01*
X020935Y005431D01*
X019935Y006431D01*
X019185Y006431D01*
X018935Y006181D01*
X017685Y006181D01*
X017185Y005681D01*
X015435Y005681D01*
X014935Y005681D01*
X016685Y004931D02*
X017935Y004931D01*
X017935Y003181D01*
X016685Y002931D02*
X016685Y000931D01*
X017685Y000931D01*
X017935Y001181D01*
X018185Y001431D01*
X020435Y001431D01*
X020685Y001681D01*
X021185Y001681D01*
X022185Y002681D01*
X022185Y003931D01*
X023435Y004931D01*
X024185Y004931D01*
X025185Y004931D01*
X025435Y005181D01*
X024185Y007181D02*
X023435Y007181D01*
X022185Y008431D02*
X021435Y008431D01*
X020685Y009181D01*
X019435Y010431D01*
X018935Y010431D01*
X019935Y011431D02*
X017935Y011431D01*
X016435Y011431D01*
X015685Y011431D02*
X014435Y010181D01*
X019935Y011431D02*
X022185Y009181D01*
X024185Y009181D01*
X024185Y009431D01*
X020435Y008431D02*
X019935Y008431D01*
X020935Y005431D02*
X020685Y005181D01*
X020685Y003681D01*
X017935Y004931D02*
X017935Y005181D01*
X018185Y005431D01*
X016185Y003681D02*
X016685Y002931D01*
X016185Y003681D02*
X015435Y003681D01*
D16*
X015435Y003931D01*
X015185Y004181D01*
X013435Y004181D01*
X013185Y004431D01*
X013185Y005181D01*
X012685Y005681D01*
X011185Y005681D01*
X012685Y006431D02*
X013435Y005681D01*
X014935Y005681D01*
X014185Y005681D01*
X012685Y006431D02*
X012685Y007681D01*
X012185Y008181D01*
X010685Y008181D01*
X010185Y008681D01*
X010185Y009931D01*
X011185Y008681D02*
X012435Y008681D01*
X013435Y007681D01*
X014185Y007681D01*
X013685Y008181D02*
X015935Y008181D01*
X016435Y007681D01*
X016435Y007431D01*
X013685Y008181D02*
X013185Y008681D01*
X013185Y009181D01*
X014185Y010181D01*
X014435Y010181D01*
D17*
X015685Y008681D02*
X016435Y009431D01*
X016435Y011431D01*
X014685Y012181D02*
X022935Y012181D01*
X022935Y010431D01*
X024435Y012181D02*
X025435Y011181D01*
X025435Y005181D01*
X016685Y004931D02*
X016435Y004681D01*
X016185Y004681D01*
X014185Y004681D01*
X014185Y003681D02*
X014185Y002681D01*
X014185Y001681D01*
X013685Y001181D01*
X009935Y001181D01*
X008685Y001181D01*
X008435Y001181D01*
X008185Y000931D01*
X005435Y000931D01*
X004185Y002181D01*
X004185Y002931D01*
X003435Y002931D01*
X003185Y003181D01*
X003185Y003681D01*
X001685Y003681D01*
X003185Y003681D02*
X003185Y004431D01*
X003935Y005181D01*
X003935Y005681D01*
X002935Y006681D01*
X002935Y007681D01*
X001685Y007681D01*
X002935Y007681D02*
X003185Y007931D01*
X004185Y007931D01*
X004185Y009431D01*
X003185Y010431D01*
X003185Y011181D01*
X002685Y011681D01*
X001685Y011681D01*
X009435Y007681D02*
X009935Y007681D01*
X011185Y007681D01*
X011185Y008681D02*
X011185Y010431D01*
X011685Y011431D02*
X013935Y011431D01*
X014685Y012181D01*
X014185Y008681D02*
X015685Y008681D01*
X022935Y012181D02*
X024435Y012181D01*
X009935Y003681D02*
X009935Y001181D01*
D18*
X011185Y010431D02*
X010685Y010931D01*
X009435Y010931D01*
X008185Y010931D01*
M02*
