G75*
G70*
%OFA0B0*%
%FSLAX24Y24*%
%IPPOS*%
%LPD*%
%AMOC8*
5,1,8,0,0,1.08239X$1,22.5*
%
%ADD10OC8,0.0520*%
%ADD11C,0.0520*%
%ADD12OC8,0.1500*%
%ADD13C,0.1000*%
%ADD14OC8,0.1000*%
D10*
X008351Y001101D03*
X009601Y000851D03*
X008351Y003101D03*
X010851Y003601D03*
X009601Y004851D03*
X010851Y005601D03*
X008101Y005351D03*
X004101Y005351D03*
X004101Y007351D03*
X004101Y008351D03*
X003351Y010351D03*
X007351Y010351D03*
X008351Y011351D03*
X009851Y011351D03*
X010601Y011351D03*
X011851Y010101D03*
X014601Y011351D03*
X015851Y010101D03*
X016851Y010851D03*
X018101Y010851D03*
X019101Y008851D03*
X016851Y008851D03*
X016351Y007601D03*
X018101Y006851D03*
X019101Y005351D03*
X017601Y005101D03*
X016351Y003601D03*
X019101Y001601D03*
X017601Y001101D03*
X023101Y001601D03*
X023101Y005351D03*
X023101Y008851D03*
X009851Y007351D03*
X008351Y007351D03*
D11*
X006611Y007351D02*
X006091Y007351D01*
X006091Y008351D02*
X006611Y008351D01*
X006611Y006351D02*
X006091Y006351D01*
X011841Y006601D02*
X012361Y006601D01*
X012361Y007601D02*
X011841Y007601D01*
X011841Y008601D02*
X012361Y008601D01*
X014841Y008601D02*
X015361Y008601D01*
X015361Y007601D02*
X014841Y007601D01*
X014841Y006601D02*
X015361Y006601D01*
X015361Y005601D02*
X014841Y005601D01*
X014841Y004601D02*
X015361Y004601D01*
X015361Y003601D02*
X014841Y003601D01*
X014841Y002601D02*
X015361Y002601D01*
X012361Y002601D02*
X011841Y002601D01*
X011841Y003601D02*
X012361Y003601D01*
X012361Y004601D02*
X011841Y004601D01*
X011841Y005601D02*
X012361Y005601D01*
X018841Y006601D02*
X019361Y006601D01*
X019361Y007851D02*
X018841Y007851D01*
X021841Y007851D02*
X022361Y007851D01*
X022361Y006601D02*
X021841Y006601D01*
X021841Y004101D02*
X022361Y004101D01*
X022361Y002851D02*
X021841Y002851D01*
X019361Y002851D02*
X018841Y002851D01*
X018841Y004101D02*
X019361Y004101D01*
D12*
X024601Y003601D03*
X024601Y005601D03*
X024601Y007601D03*
X024601Y009601D03*
X024601Y011601D03*
X024601Y001601D03*
X002101Y004851D03*
X002101Y007101D03*
X002101Y009351D03*
D13*
X005601Y003601D03*
D14*
X005601Y001601D03*
M02*
